# xmcd
# Track frame offsets:
# 150
# 16401
# 35006
# 54292
# 68983
# 94896
# 114174
# 129930
# 146316
# 164880
# 193158
# 211517
# 230674
# 244787
# 261475
#
# Disc length: 3817 seconds
# Revision: 0
# Processed by: cddbd v1.5.1PL0 Copyright (c) Steve Scherf et al.
# Submitted via: VisiTrax 2.9.10.228 - For more info visit www.synapsa.com
#
DISCID=d50ee70f
DTITLE=Various Artist - CB60335
DYEAR=1900
DGENRE=Karaoke
TTITLE0=Adkins, Trace - Songs About Me
TTITLE1=Brooks and Dunn - It's Getting Better All The Time
TTITLE2=Dalley, Amy - I Would Cry
TTITLE3=Anderson, Keith - Pickin' Wildflowers
TTITLE4=Chesney, Kenny - Anything But Mine
TTITLE5=Larsen, Blaine - How Do You Get That Lonely
TTITLE6=Messina, Jo Dee - My Give A Damn's Busted
TTITLE7=Vassar, Phil - I'll Take That As A Yes (The Hot Tub Song)
TTITLE8=Lines, Aaron - Waitin' On The Wonderful
TTITLE9=McBride, Martina - God's Will
TTITLE10=Worley, Darryl - Awful, Beautiful Life
TTITLE11=Cross Canadian - Alabama
TTITLE12=Krauss, Alison and Union - Restless
TTITLE13=Atkins, Rodney - Monkey In The Middle
TTITLE14=Blue County - Nothin' But Cowboy Boots
EXTD=
EXTT0=
EXTT1=
EXTT2=
EXTT3=
EXTT4=
EXTT5=
EXTT6=
EXTT7=
EXTT8=
EXTT9=
EXTT10=
EXTT11=
EXTT12=
EXTT13=
EXTT14=
PLAYORDER=
